<svg xmlns="http://www.w3.org/2000/svg" viewBox="0 0 226.88 334.71" width="32" height="40">
    <defs>
        <style>
            .cls-1 {
            fill: #fff;
            stroke: #000;
            stroke-miterlimit: 10;
            stroke-width: 12px;
            }
        </style>
    </defs>
    <g id="Layer_2" data-name="Layer 2">
        <g id="Layer_1-2" data-name="Layer 1">
            <g id="Layer_2-2" data-name="Layer 2">
                <g id="Layer_1-2-2" data-name="Layer 1-2">
                    <path class="cls-1"
                        d="M212.42,227.67c-.55-1.34-.91-2.33-1.35-3.28q-19.23-40.9-38.42-81.84c-1-2.15-2.12-2.94-4.55-2.93-23.6.09-47.21.06-70.84.06-1,0-2.19.33-2.86-.13-1.1-.76-2.59-2-2.59-3.1s1.43-2.34,2.53-3.11c.65-.45,1.87-.13,2.85-.13h71L113.39,16.51c-.7,1.42-1.22,2.42-1.73,3.46Q62.42,124.73,13.16,229.5c-.54,1.16-.95,2.59-1.88,3.31s-2.83,1.25-3.61.76c-1-.62-1.51-2.33-1.66-3.63-.1-.93.73-2,1.19-2.95L109,10.44a6,6,0,0,1,.87-1.73c1.1-1,2.31-2.7,3.45-2.71s2.86,1.45,3.46,2.69c4,8.1,7.78,16.32,11.62,24.51Q151.24,81.86,174,130.56a4,4,0,0,0,4.32,2.71c12.5-.12,25-.07,37.51,0,1.15,0,2.6,0,3.37.62s1.78,2.67,1.43,3.12c-.92,1.18-2.5,2.59-3.83,2.59-11.42.21-22.85.12-34.28.12H178.5c.56,1.33,1,2.38,1.43,3.38l39.51,83.81a25.13,25.13,0,0,1,1.18,2.65c.79,2.3-.25,4.09-2.65,4.48a20.35,20.35,0,0,1-3.22.1H98.37v88H214.91c1,0,2.17-.36,2.86.09,1.2.8,2.87,2.07,2.87,3.15s-1.73,2.3-2.88,3.13c-.58.41-1.68.09-2.54.09h-118c-4.94,0-5.53-.59-5.53-5.58V233.08c0-4.77.64-5.41,5.37-5.41Z" />
                </g>
            </g>
        </g>
    </g>
</svg>